#define dropbox_width 17
#define dropbox_height 16
static unsigned char dropbox_bits[] = {
   0x30, 0x18, 0x00, 0x78, 0x3c, 0x00, 0xfe, 0xfe, 0x00, 0xff, 0xfe, 0x01,
   0x3c, 0x78, 0x00, 0x08, 0x20, 0x00, 0x08, 0x20, 0x00, 0x3c, 0x78, 0x00,
   0x7e, 0xfc, 0x01, 0xfe, 0xfe, 0x00, 0x78, 0x3d, 0x00, 0xb0, 0x1f, 0x00,
   0xf0, 0x1f, 0x00, 0xe0, 0x0f, 0x00, 0xc0, 0x07, 0x00, 0x00, 0x01, 0x00 };
